<svg width="380" height="401" viewBox="0 0 380 401" fill="none" xmlns="http://www.w3.org/2000/svg">
<path fill-rule="evenodd" clip-rule="evenodd" d="M184.262 89.5019C179.654 84.0925 176.536 77.4631 177.057 70.0347C178.558 48.6314 208.349 53.3398 214.143 64.1424C219.938 74.9449 219.25 102.346 211.76 104.277C208.774 105.047 202.411 103.161 195.935 99.2574L200 128.017H176L184.262 89.5019Z" fill="#B28B67"/>
<path fill-rule="evenodd" clip-rule="evenodd" d="M197.135 72.3985C198.054 85.1973 200.484 91.5968 204.426 91.5968C210.339 91.5968 215.355 87.8426 217.95 87.8426C219.841 87.8426 219.419 90.2096 218.165 91.9646C217.131 93.4125 212.094 94.8081 212.094 97.0529C212.094 99.2976 216.073 97.561 216.073 98.8923C216.073 101.094 216.773 105.235 212.951 105.235C209.084 105.235 197.995 103.825 196.094 98.0844C194.868 94.3794 194.075 86.702 193.716 75.0521C193.481 75.0242 193.242 75.0099 193 75.0099C189.686 75.0099 187 77.6965 187 81.0107C187 82.6931 187.692 84.2139 188.808 85.3035C187.419 87.2633 185.863 89.3107 184.08 91.4233C177.382 87.4042 172.412 75.6389 178.96 64.3368C180.77 58.8 184.868 55.8426 189.707 54.4694C193.627 52.8294 197.697 52.6445 201.132 53.6276C207.866 54.2053 213.879 56.2589 215.583 57.4785C215.583 63.8546 214.348 65.7464 203.797 65.5796C201.204 66.949 199.211 69.307 197.135 72.3985Z" fill="black"/>
<path fill-rule="evenodd" clip-rule="evenodd" d="M294.884 229.126C302.064 219.387 320.011 225.834 320 233.896C319.972 255.065 300.657 355.559 299.648 361.904C298.64 368.248 287.837 370.324 287.208 362.396C286.207 349.782 284.347 306.053 286.208 285.709C286.751 279.767 287.324 274.023 287.901 268.642C277.75 286.881 262.314 312.66 241.593 345.979L230.077 340.717C239.12 310.917 246.536 289.879 252.323 277.603C262.233 256.584 271.525 238.583 275.436 232.243C280.602 223.867 288.981 224.979 294.884 229.126Z" fill="#B28B67"/>
<path fill-rule="evenodd" clip-rule="evenodd" d="M230.9 324.168L270.427 230.518C279.897 215.283 306.446 233.618 303.217 242.454C295.886 262.514 258.6 327.457 256.415 333.434L230.9 324.168Z" fill="#2A110D"/>
<path fill-rule="evenodd" clip-rule="evenodd" d="M321 241.208C321 267.753 309.366 330.15 309.358 335.995L281.176 335.044C286.102 280.794 288.18 253.485 287.409 253.118C285.673 252.291 216.262 262.726 195.445 263.514C165.426 264.65 153.008 246.231 152 211.278H210.148C259.869 217.214 292.548 221.343 308.185 223.664C318.226 225.155 321 233.896 321 241.208Z" fill="#2A110D"/>
<path fill-rule="evenodd" clip-rule="evenodd" d="M258.559 319.089L265.012 320.699C273.587 322.837 278.805 331.522 276.667 340.097L274.732 347.86C272.594 356.435 263.911 361.653 255.337 359.515L248.883 357.905C240.309 355.767 235.091 347.082 237.228 338.507L239.164 330.744C241.301 322.169 249.985 316.951 258.559 319.089ZM251.874 326.732C249.73 326.197 247.559 327.502 247.025 329.646L243.654 343.169C243.12 345.312 244.424 347.484 246.568 348.018L262.022 351.872C264.165 352.407 266.336 351.102 266.871 348.958L270.242 335.435C270.776 333.292 269.471 331.12 267.328 330.586L251.874 326.732Z" fill="#C5CFD6"/>
<path fill-rule="evenodd" clip-rule="evenodd" d="M285.678 347.448C284.559 350.435 284 352.67 284 354.152C284 355.956 284.3 358.588 284.901 362.048C286.993 362.048 305.794 362.048 341.303 362.048C342.769 357.202 341.923 354.585 338.765 354.199C335.607 353.813 332.984 353.464 330.895 353.152L304.68 341.464C304.176 341.239 303.584 341.466 303.359 341.97C303.356 341.979 303.352 341.987 303.348 341.996L301.663 346.084C298.74 347.448 296.364 348.131 294.537 348.131C293.052 348.131 291.001 347.531 288.384 346.331L288.384 346.331C287.38 345.871 286.193 346.312 285.733 347.316C285.713 347.359 285.695 347.403 285.678 347.448Z" fill="#E4E4E4"/>
<path d="M334.5 362.048H288.5C286.567 362.048 285 363.615 285 365.548C285 367.481 286.567 369.049 288.5 369.049H334.5C336.433 369.049 338 367.481 338 365.548C338 363.615 336.433 362.048 334.5 362.048Z" fill="#B28B67"/>
<path fill-rule="evenodd" clip-rule="evenodd" d="M149 217.029H256C261.523 217.029 266 221.506 266 227.03V276.036H143C140.791 276.036 139 274.245 139 272.036V227.03C139 221.506 143.477 217.029 149 217.029Z" fill="#B28B67"/>
<path fill-rule="evenodd" clip-rule="evenodd" d="M256 217.029H258.194C263.091 217.029 267.268 220.576 268.062 225.41L290 359.047H279.314" fill="#B28B67"/>
<path d="M285 379.05C294.941 379.05 303 370.99 303 361.048C303 351.105 294.941 343.045 285 343.045C275.059 343.045 267 351.105 267 361.048C267 370.99 275.059 379.05 285 379.05Z" fill="black"/>
<path fill-rule="evenodd" clip-rule="evenodd" d="M152 377.05C110.026 377.05 76 343.019 76 301.04C76 259.061 110.026 225.03 152 225.03C193.974 225.03 228 259.061 228 301.04C228 343.019 193.974 377.05 152 377.05ZM152 363.048C186.242 363.048 214 335.286 214 301.04C214 266.794 186.242 239.032 152 239.032C117.758 239.032 90 266.794 90 301.04C90 335.286 117.758 363.048 152 363.048Z" fill="black"/>
<path d="M156 235.031H148V367.048H156V235.031Z" fill="black"/>
<path d="M200.083 255.779L197.255 252.95C196.474 252.169 195.207 252.169 194.426 252.95L103.917 343.472C103.136 344.253 103.136 345.519 103.917 346.3L106.745 349.129C107.526 349.91 108.793 349.91 109.574 349.129L200.083 258.608C200.864 257.827 200.864 256.56 200.083 255.779Z" fill="black"/>
<path d="M218 303.04V299.039C218 297.935 217.105 297.039 216 297.039H88C86.8954 297.039 86 297.935 86 299.039V303.04C86 304.145 86.8954 305.04 88 305.04H216C217.105 305.04 218 304.145 218 303.04Z" fill="black"/>
<path d="M197.255 349.129L200.083 346.301C200.864 345.519 200.864 344.253 200.083 343.472L109.574 252.95C108.793 252.169 107.526 252.169 106.745 252.95L103.917 255.779C103.136 256.56 103.136 257.827 103.917 258.608L194.426 349.129C195.207 349.91 196.474 349.91 197.255 349.129Z" fill="black"/>
<path fill-rule="evenodd" clip-rule="evenodd" d="M252.781 198.238L284.679 221.664C293.331 223.999 300.559 226.904 306.364 230.379C307.735 231.628 309.392 234.159 303.705 233.722C298.019 233.284 292.018 233.08 291.233 235.02C290.449 236.96 293.89 239.28 292.304 241.897C291.246 243.642 286.251 239.267 277.317 228.771L245.73 215.671L252.781 198.238ZM130.308 199.046L151.205 199.128C138.302 240.787 131.336 262.892 130.308 265.441C127.994 271.176 132.891 279.911 134.985 284.605C128.165 287.657 128.891 276.353 120.288 280.356C112.435 284.01 106.462 290.631 97.389 285.032C96.2736 284.344 95.0513 281.752 98.0046 279.727C105.362 274.681 115.965 265.85 117.398 262.943C119.352 258.979 123.655 237.68 130.308 199.046Z" fill="#B28B67"/>
<path fill-rule="evenodd" clip-rule="evenodd" d="M189.695 111.347L198.342 109.863C230.425 137.582 243.603 190.834 282.93 219.044L273.464 230.778C205.24 222.33 188.33 157.376 189.695 111.347Z" fill="#E87613"/>
<path fill-rule="evenodd" clip-rule="evenodd" d="M152 220.029C186.672 220.029 212.176 220.029 228.511 220.029C232.008 220.029 231.349 214.98 230.843 212.432C225.011 183.028 202.241 151.331 202.241 109.475L180.172 106.014C161.917 135.376 155.605 171.527 152 220.029Z" fill="#DDE3E9"/>
<path fill-rule="evenodd" clip-rule="evenodd" d="M152.615 134.876C149.41 133.954 146.871 131.805 145 128.428C136.934 113.871 139.847 105.856 148.467 103.222C157.088 100.587 164.775 106.014 178.51 106.014C179.257 106.014 179.941 106.061 180.563 106.155L187.472 106.549C207.294 173.738 212.761 218.566 203.872 241.032H143.652C140.084 249.353 136.67 256.354 133.409 262.035H117C115.456 212.095 127.327 169.709 152.615 134.876Z" fill="#FF9B21"/>
<path fill-rule="evenodd" clip-rule="evenodd" d="M156.765 206.525C158.659 222.373 161.737 233.876 166 241.032H143.652C147.814 231.326 152.185 219.823 156.765 206.525Z" fill="black" fill-opacity="0.1"/>
</svg>
